<svg xmlns="http://www.w3.org/2000/svg" viewBox="0 0 520 160" role="img" aria-labelledby="title desc">
  <title id="title">Soundprint</title>
  <desc id="desc">A record shaped like a fingerprint next to the Soundprint wordmark.</desc>
  <g transform="translate(10 10)">
    <circle cx="70" cy="70" r="66" fill="#0d0d0d" stroke="#f2f2f2" stroke-width="3"/>
    <circle cx="70" cy="70" r="13" fill="#c9282d"/>
    <circle cx="70" cy="70" r="5" fill="#f7f7f7"/>
    <path d="M46 36c30-24 74-7 82 31 6 31-15 58-43 65" fill="none" stroke="#f7f7f7" stroke-width="4" stroke-linecap="round"/>
    <path d="M35 55c17-35 77-39 100 2 17 30 7 73-34 88" fill="none" stroke="#777" stroke-width="3" stroke-linecap="round"/>
    <path d="M55 54c18-17 50-11 62 12 11 21 2 48-21 59" fill="none" stroke="#f7f7f7" stroke-width="3" stroke-linecap="round"/>
    <path d="M31 80c4-53 75-74 110-32" fill="none" stroke="#777" stroke-width="2.5" stroke-linecap="round"/>
    <path d="M21 99c15 45 62 65 105 45" fill="none" stroke="#777" stroke-width="2.5" stroke-linecap="round"/>
  </g>
  <g transform="translate(166 50)">
    <text x="0" y="42" fill="#ffffff" font-family="Arial, Helvetica Neue, sans-serif" font-size="48" font-weight="800">Soundprint</text>
    <rect x="4" y="62" width="186" height="5" fill="#c9282d"/>
  </g>
</svg>
